{"title":"WWE Friday Night Smackdown 2012 02 03 HDTV XviD-vasylius","uid":7005995,"size":872801924,"categoryP":"video","categoryS":"tv_shows","magnet":"?xt=urn:btih:03af709400a631a2779731c68d1ee67b5b7c91a7&amp;dn=WWE+Friday+Night+Smackdown+2012+02+03+HDTV+XviD-vasylius&amp;tr=udp%3A%2F%2Ftracker.openbittorrent.com%3A80&amp;tr=udp%3A%2F%2Fopen.demonii.com%3A1337&amp;tr=udp%3A%2F%2Ftracker.coppersurfer.tk%3A6969&amp;tr=udp%3A%2F%2Fexodus.desync.com%3A6969","seeders":0,"leechers":0,"uploader":"HeroMaster","files":-1,"time":1328270195,"description":"WWE Friday Night Smackdown 2012 02 03 HDTV XviD-vasylius\n\nEvent: WWE.Friday.Night.Smackdown.2012.02.03\nVideo: XviD / 624x352 / 25 fps / 1000 kbps\nAudio: MP3 / 48 KHz / 2 channels / 128 kbps\n\nGeneral\nFormat                                  : AVI\nFormat/Info                              : Audio Video Interleave\nFile size                                : 832 MiB\nDuration                                : 1h 27mn\nOverall bit rate                        : 1 336 Kbps\n\nVideo\nID                                      : 0\nFormat                                  : MPEG-4 Visual\nFormat profile                          : Advanced Simple@L5\nFormat settings, BVOP                    : 2\nFormat settings, QPel                    : No\nFormat settings, GMC                    : No warppoints\nFormat settings, Matrix                  : Default (H.263)\nMuxing mode                              : Packed bitstream\nCodec ID                                : XVID\nCodec ID/Hint                            : XviD\nDuration                                : 1h 27mn\nBit rate                                : 1 199 Kbps\nWidth                                    : 624 pixels\nHeight                                  : 352 pixels\nDisplay aspect ratio                    : 16:9\nFrame rate                              : 25.000 fps\nColor space                              : YUV\nChroma subsampling                      : 4:2:0\nBit depth                                : 8 bits\nScan type                                : Progressive\nCompression mode                        : Lossy\nBits/(Pixel*Frame)                      : 0.218\nStream size                              : 747 MiB (90%)\nWriting library                          : XviD 1.2.1 (UTC 2008-12-04)\n\nAudio\nID                                      : 1\nFormat                                  : AC-3\nFormat/Info                              : Audio Coding 3\nMode extension                          : CM (complete main)\nCodec ID                                : 2000\nDuration                                : 1h 27mn\nBit rate mode                            : Constant\nBit rate                                : 128 Kbps\nChannel(s)                              : 2 channels\nChannel positions                        : Front: L R\nSampling rate                            : 48.0 KHz\nBit depth                                : 16 bits\nCompression mode                        : Lossy\nStream size                              : 79.7 MiB (10%)\nAlignment                                : Aligned on interleaves\nInterleave, duration                    : 40 ms (1.00 video frame) \n\n\nPoster:\n\n &lt;a href=&quot;\nhttp://i.imgur.com/5hsH3.jpg&quot; rel=&quot;nofollow&quot; target=&quot;_NEW&quot;&gt;\nhttp://i.imgur.com/5hsH3.jpg&lt;/a&gt;\n\n\nScreens:\n\n &lt;a href=&quot;\nhttp://i.imgur.com/4fkNL.jpg&quot; rel=&quot;nofollow&quot; target=&quot;_NEW&quot;&gt;\nhttp://i.imgur.com/4fkNL.jpg&lt;/a&gt;\n\n &lt;a href=&quot;\nhttp://i.imgur.com/m0tF4.jpg&quot; rel=&quot;nofollow&quot; target=&quot;_NEW&quot;&gt;\nhttp://i.imgur.com/m0tF4.jpg&lt;/a&gt;\n\n &lt;a href=&quot;\nhttp://i.imgur.com/bXXrv.jpg&quot; rel=&quot;nofollow&quot; target=&quot;_NEW&quot;&gt;\nhttp://i.imgur.com/bXXrv.jpg&lt;/a&gt;\n\n\nENJOY!","torrent":{"xt":"urn:btih:03af709400a631a2779731c68d1ee67b5b7c91a7","amp;dn":"WWE+Friday+Night+Smackdown+2012+02+03+HDTV+XviD-vasylius","amp;tr":["udp%3A%2F%2Ftracker.openbittorrent.com%3A80","udp%3A%2F%2Fopen.demonii.com%3A1337","udp%3A%2F%2Ftracker.coppersurfer.tk%3A6969","udp%3A%2F%2Fexodus.desync.com%3A6969"],"infoHash":"03af709400a631a2779731c68d1ee67b5b7c91a7","infoHashBuffer":{"type":"Buffer","data":[3,175,112,148,0,166,49,162,119,151,49,198,141,30,230,123,91,124,145,167]},"announce":[],"urlList":[]}}